<svg width="80" height="80" viewBox="0 0 80 80" fill="none" xmlns="http://www.w3.org/2000/svg">
<path d="M12.1012 36.6667H55.9405C56.5119 36.6667 56.9762 37.131 56.9762 37.7024V45H71.3393C72.2083 45 73 44.6429 73.5714 44.0714C74.1428 43.5 74.5 42.7083 74.5 41.8393V25.1726C74.5 24.3036 74.1428 23.5119 73.5714 22.9405C73 22.3691 72.2083 22.0119 71.3393 22.0119H8.66665C7.79761 22.0119 7.00594 22.3691 6.43451 22.9405C5.85713 23.5119 5.49999 24.3036 5.49999 25.1726V41.8393C5.49999 42.7083 5.85713 43.5 6.42856 44.0714C6.99999 44.6429 7.79165 45 8.6607 45H11.0595V37.7024C11.0655 37.131 11.5297 36.6667 12.1012 36.6667ZM54.9047 38.7381H13.1369V44.7441H54.9047V38.7381ZM8.66665 19.9345H71.3393C72.7797 19.9345 74.0893 20.5238 75.0357 21.4703C75.9821 22.4167 76.5714 23.7262 76.5714 25.1667V41.8393C76.5714 43.2798 75.9821 44.5893 75.0357 45.5357C74.0893 46.4822 72.7797 47.0714 71.3393 47.0714H8.66665C7.22618 47.0714 5.91665 46.4822 4.97022 45.5357C4.01784 44.5893 3.42856 43.2798 3.42856 41.8393V25.1726C3.42856 23.7322 4.01784 22.4226 4.96427 21.4762C5.91665 20.5238 7.22618 19.9345 8.66665 19.9345Z" fill="#1998A7"/>
<path d="M51.2917 50.5952C50.8155 50.7976 50.6905 51.2083 51.0059 51.5119C52.6495 53.0724 51.7794 54.4732 50.9425 55.8205L50.9345 55.8333C49.9286 57.4405 48.9702 58.9822 51.0357 60.7857C51.375 61.0833 52.0238 61.1429 52.4821 60.9286C52.9405 60.7143 53.0417 60.3036 52.7024 60.006C51.3118 58.7937 52.063 57.5874 52.8473 56.3278L52.8512 56.3214C53.8928 54.6548 54.9762 52.9167 52.7262 50.7738C52.4048 50.4762 51.7678 50.3929 51.2917 50.5952Z" fill="#1998A7"/>
<path d="M16.4345 50.5952C15.9583 50.7976 15.8333 51.2083 16.1488 51.5119C17.7901 53.0759 16.9183 54.4795 16.0797 55.8296L16.0774 55.8333C15.0714 57.4405 14.1131 58.9822 16.1786 60.7857C16.5179 61.0833 17.1667 61.1429 17.625 60.9286C18.0833 60.7143 18.1845 60.3036 17.8452 60.006C16.4547 58.7937 17.2058 57.5874 17.9901 56.3278L17.994 56.3214C19.0357 54.6548 20.119 52.9167 17.869 50.7738C17.5476 50.4762 16.9107 50.3929 16.4345 50.5952Z" fill="#1998A7"/>
<path d="M25.1488 50.5952C24.6726 50.7976 24.5476 51.2083 24.8631 51.5119C26.5044 53.0759 25.6326 54.4795 24.794 55.8296L24.7917 55.8333C23.7857 57.4405 22.8274 58.9822 24.8929 60.7857C25.2321 61.0833 25.8809 61.1429 26.3393 60.9286C26.7976 60.7143 26.8988 60.3036 26.5595 60.006C25.169 58.7937 25.9201 57.5874 26.7044 56.3278L26.7083 56.3214C27.75 54.6548 28.8333 52.9167 26.5833 50.7738C26.2619 50.4762 25.625 50.3929 25.1488 50.5952Z" fill="#1998A7"/>
<path d="M33.8631 50.5952C33.3869 50.7976 33.2619 51.2083 33.5774 51.5119C35.2209 53.0724 34.3508 54.4732 33.514 55.8204L33.5059 55.8333C32.5 57.4405 31.5417 58.9822 33.6071 60.7857C33.9464 61.0833 34.5952 61.1429 35.0536 60.9286C35.5119 60.7143 35.6131 60.3036 35.2738 60.006C33.8833 58.7937 34.6344 57.5874 35.4187 56.3277L35.4226 56.3214C36.4643 54.6548 37.5476 52.9167 35.2976 50.7738C34.9762 50.4762 34.3393 50.3929 33.8631 50.5952Z" fill="#1998A7"/>
<path d="M42.5774 50.5952C42.1012 50.7976 41.9762 51.2083 42.2917 51.5119C43.9352 53.0724 43.0651 54.4732 42.2282 55.8204L42.2202 55.8333L42.2155 55.8409C41.2172 57.4453 40.2592 58.985 42.3214 60.7857C42.6607 61.0833 43.3095 61.1429 43.7678 60.9286C44.2262 60.7143 44.3274 60.3036 43.9881 60.006C42.5976 58.7937 43.3487 57.5874 44.133 56.3277L44.1369 56.3214C45.1786 54.6548 46.2619 52.9167 44.0119 50.7738C43.6905 50.4762 43.0536 50.3929 42.5774 50.5952Z" fill="#1998A7"/>
<path d="M63.5714 40.4405C63.5714 39.631 62.9166 38.9762 62.1071 38.9762C61.3035 38.9762 60.6428 39.631 60.6428 40.4405C60.6428 41.25 61.2976 41.9048 62.1071 41.9048C62.9166 41.9048 63.5714 41.25 63.5714 40.4405Z" fill="#F8981D"/>
<path d="M69.6845 40.4405C69.6845 39.631 69.0297 38.9762 68.2202 38.9762C67.4107 38.9762 66.7559 39.631 66.7559 40.4405C66.7559 41.25 67.4107 41.9048 68.2202 41.9048C69.0297 41.9048 69.6845 41.25 69.6845 40.4405Z" fill="#F8981D"/>
<path d="M11.4464 27.0179C11.4464 27.5893 11.9107 28.0536 12.4822 28.0536H68.2798C68.8512 28.0536 69.3155 27.5893 69.3155 27.0179C69.3155 26.4464 68.8512 25.9821 68.2798 25.9821H12.4822C11.9107 25.9821 11.4464 26.4464 11.4464 27.0179Z" fill="#F8981D"/>
<path d="M11.4464 31.8512C11.4464 32.4226 11.9107 32.8869 12.4822 32.8869H68.2798C68.8512 32.8869 69.3155 32.4226 69.3155 31.8512C69.3155 31.2798 68.8512 30.8155 68.2798 30.8155H12.4822C11.9107 30.8155 11.4464 31.2798 11.4464 31.8512Z" fill="#F8981D"/>
</svg>
