<svg width="80" height="80" viewBox="0 0 80 80" fill="none" xmlns="http://www.w3.org/2000/svg">
<path d="M40 13.3333C47.3333 13.3333 53.3333 19.3333 53.3333 26.6667C53.3333 33.6667 46.3333 45 40 53C33.6667 44.6667 26.6667 33.6667 26.6667 26.6667C26.6667 19.3333 32.6667 13.3333 40 13.3333ZM40 6.66667C29 6.66667 20 15.6667 20 26.6667C20 41.6667 40 63.3333 40 63.3333C40 63.3333 60 41.3333 60 26.6667C60 15.6667 51 6.66667 40 6.66667Z" fill="#1998A7"/>
<path d="M33.3334 26.6667C33.3334 23 36.3334 20 40 20C43.6667 20 46.6667 23 46.6667 26.6667C46.6667 30.3333 43.6667 33.3333 40 33.3333C36.3334 33.3333 33.3334 30.3333 33.3334 26.6667Z" fill="#F8981D"/>
<path d="M40 76.666C54.6667 76.666 66.6667 70.666 66.6667 63.3327C66.6667 58.9993 62.6667 55.3327 56 52.666L54 55.666C57.6667 57.3327 60 59.3327 60 61.666C60 66.3327 51 69.9993 40 69.9993C29 69.9993 20 66.3327 20 61.666C20 59.3327 22.3334 57.3327 25.6667 55.666L23.6667 52.666C17.3334 55.3327 13.3334 58.9993 13.3334 63.3327C13.3334 70.666 25.3334 76.666 40 76.666Z" fill="#F8981D"/>
</svg>
