<svg width="80" height="80" viewBox="0 0 80 80" fill="none" xmlns="http://www.w3.org/2000/svg">
<path d="M66.5 70C59.3333 70 52.3478 68.4022 45.5433 65.2067C38.7367 62.0133 32.7089 57.7911 27.46 52.54C22.2089 47.2911 17.9867 41.2633 14.7933 34.4567C11.5978 27.6522 10 20.6667 10 13.5C10 12.5 10.3333 11.6667 11 11C11.6667 10.3333 12.5 10 13.5 10H27C27.7778 10 28.4722 10.25 29.0833 10.75C29.6944 11.25 30.0556 11.8889 30.1667 12.6667L32.3333 24.3333C32.4444 25.1111 32.4311 25.8189 32.2933 26.4567C32.1533 27.0967 31.8333 27.6667 31.3333 28.1667L23.3333 36.3333C25.6667 40.3333 28.5833 44.0833 32.0833 47.5833C35.5833 51.0833 39.4444 54.1111 43.6667 56.6667L51.5 48.8333C52 48.3333 52.6533 47.9578 53.46 47.7067C54.2644 47.4578 55.0556 47.3889 55.8333 47.5L67.3333 49.8333C68.1111 50 68.75 50.3744 69.25 50.9567C69.75 51.5411 70 52.2222 70 53V66.5C70 67.5 69.6667 68.3333 69 69C68.3333 69.6667 67.5 70 66.5 70ZM20.1667 30L25.6667 24.5L24.1667 16.6667H16.8333C17.1111 18.9444 17.5 21.1944 18 23.4167C18.5 25.6389 19.2222 27.8333 20.1667 30ZM63.3333 63.1667V55.8333L55.5 54.1667L50 59.6667C52.1667 60.6111 54.3611 61.3889 56.5833 62C58.8056 62.6111 61.0556 63 63.3333 63.1667Z" fill="#1998A7"/>
<path d="M64.2933 39.0397C64.9867 39.6797 65.7778 39.9997 66.6667 39.9997C67.6111 39.9997 68.4022 39.6663 69.04 38.9997C69.68 38.333 69.9444 37.5552 69.8333 36.6663C69.0556 29.6663 66.1944 23.6941 61.25 18.7497C56.3056 13.8052 50.3333 10.9441 43.3333 10.1663C42.4444 10.0552 41.6667 10.3186 41 10.9563C40.3333 11.5963 40 12.3886 40 13.333C40 14.2774 40.32 15.083 40.96 15.7497C41.5978 16.4163 42.3889 16.8052 43.3333 16.9163C48.5 17.6386 52.9033 19.8186 56.5433 23.4563C60.1811 27.0963 62.3611 31.4997 63.0833 36.6663C63.1944 37.6108 63.5978 38.4019 64.2933 39.0397Z" fill="#F8981D"/>
<path d="M50.8333 39.2497C51.3889 39.7497 52.0278 39.9997 52.75 39.9997C53.8611 39.9997 54.7778 39.6108 55.5 38.833C56.2222 38.0552 56.4722 37.1941 56.25 36.2497C55.5278 33.1386 54.0422 30.4574 51.7933 28.2063C49.5422 25.9574 46.8611 24.4719 43.75 23.7497C42.8056 23.5274 41.9444 23.763 41.1667 24.4563C40.3889 25.1519 40 26.0552 40 27.1663C40 27.9441 40.25 28.6108 40.75 29.1663C41.25 29.7219 41.9167 30.1385 42.75 30.4163C44.3611 30.8608 45.7922 31.7074 47.0433 32.9563C48.2922 34.2074 49.1389 35.6386 49.5833 37.2497C49.8611 38.083 50.2778 38.7497 50.8333 39.2497Z" fill="#F8981D"/>
</svg>
