<svg width="80" height="80" viewBox="0 0 80 80" fill="none" xmlns="http://www.w3.org/2000/svg">
<path d="M32.9883 12.2321C32.9883 14.3258 34.692 16.0295 36.7857 16.0295C38.8795 16.0295 40.5832 14.3258 40.5832 12.2321C40.5832 10.1378 38.8795 8.43466 36.7857 8.43466C34.692 8.43466 32.9883 10.1378 32.9883 12.2321ZM38.4403 12.2321C38.4403 13.1445 37.6981 13.8867 36.7857 13.8867C35.8734 13.8867 35.1312 13.1445 35.1312 12.2321C35.1312 11.3197 35.8734 10.5775 36.7857 10.5775C37.6981 10.5775 38.4403 11.3197 38.4403 12.2321Z" fill="#1998A7"/>
<path d="M12.0804 30.0864L13.5955 28.5713L12.0854 27.0607C11.278 26.2538 11.278 24.9469 12.0854 24.1394L19.4549 16.77C21.0994 15.1254 21.1 12.4631 19.4549 10.8185L17.9443 9.30792L16.4292 10.823L17.9398 12.3336C18.7467 13.1405 18.7467 14.4474 17.9398 15.2544L10.5698 22.6243C8.92529 24.2689 8.92529 26.9312 10.5698 28.5758L12.0804 30.0864Z" fill="#1998A7"/>
<path d="M23.7222 21.0374L16.3527 28.4068C14.7082 30.0513 14.7077 32.7137 16.3527 34.3588L17.8634 35.8689L19.3784 34.3538L17.8684 32.8437C17.0609 32.0363 17.0603 30.7299 17.8684 29.9224L25.2378 22.5524C26.8784 20.9118 26.8784 18.2416 25.2378 16.601L23.7272 15.0904L22.2116 16.606L23.7222 18.1161C24.5274 18.9213 24.5274 20.2321 23.7222 21.0374Z" fill="#1998A7"/>
<path d="M25.394 36.4034L26.697 38.1048C30.4286 35.246 32.5687 30.914 32.5687 26.2192V25.5814C32.5687 21.9648 31.8806 18.2377 30.5235 14.5038C30.259 13.7773 30.125 13.0128 30.125 12.2315C30.125 8.47761 33.2366 5.42014 37.0609 5.57695C40.4699 5.71366 43.2712 8.48933 43.4381 11.8956C43.4833 12.8247 43.3421 13.7298 43.0173 14.587C41.6808 18.116 41.0028 21.8147 41.0028 25.5803V26.2192C41.0028 30.914 43.1429 35.246 46.8745 38.1048L48.1775 36.4034C44.9799 33.9542 43.1457 30.2421 43.1457 26.2192V25.5803C43.1457 22.0747 43.7768 18.6316 45.0212 15.3459C45.4509 14.212 45.6384 13.0156 45.5782 11.7907C45.3577 7.28621 41.6541 3.61601 37.1468 3.43576C32.1172 3.23766 27.9822 7.23878 27.9822 12.2315C27.9822 13.2633 28.1596 14.2739 28.5095 15.236C29.7807 18.7343 30.4258 22.2148 30.4258 25.5814V26.2192C30.4258 30.2421 28.5916 33.9536 25.394 36.4034Z" fill="#1998A7"/>
<path d="M72.6892 11.684C70.8204 10.6048 68.4337 11.2438 67.3544 13.1137L53.7261 36.7186L55.5821 37.7901L69.2105 14.1852C69.6971 13.3414 70.7741 13.0524 71.6178 13.5401C72.4616 14.0267 72.7501 15.1037 72.2629 15.9474L60.2707 36.7186L62.1267 37.7901L74.1189 17.0189C75.1982 15.15 74.5592 12.7633 72.6892 11.684Z" fill="#1998A7"/>
<path d="M11.187 76.5714H62.3845L68.2863 39.0401H5.28574L11.187 76.5714ZM60.5525 74.4285H13.019L7.79187 41.183H65.7796L60.5525 74.4285Z" fill="#F8981D"/>
<path d="M16.8231 43.0764L18.9554 42.8638L21.9135 72.5391L19.7813 72.7517L16.8231 43.0764Z" fill="#F8981D"/>
<path d="M51.6585 72.534L54.6167 42.8588L56.7489 43.0714L53.7908 72.7466L51.6585 72.534Z" fill="#F8981D"/>
<path d="M28.8293 43.006L30.9705 42.9279L32.0486 72.6009L29.9069 72.679L28.8293 43.006Z" fill="#F8981D"/>
<path d="M41.5184 72.6032L42.5966 42.9302L44.7377 43.0083L43.6602 72.6813L41.5184 72.6032Z" fill="#F8981D"/>
</svg>
