<svg width="80" height="80" viewBox="0 0 80 80" fill="none" xmlns="http://www.w3.org/2000/svg">
<path d="M29.8075 3.4285C26.6527 3.4285 23.6857 4.65707 21.4523 6.88835C20.2734 8.0672 19.3734 9.44991 18.777 10.9979C18.5097 11.6918 18.8554 12.4708 19.5491 12.7379C20.2428 13.0052 21.022 12.6595 21.2891 11.9658C21.7495 10.7708 22.4448 9.70306 23.3554 8.79234C25.08 7.06949 27.3714 6.12063 29.8075 6.12063C34.8388 6.12063 38.9322 10.2131 38.9322 15.2436C38.9322 15.987 39.5349 16.5898 40.2784 16.5898C41.0219 16.5898 41.6245 15.987 41.6245 15.2436C41.6245 8.72877 36.3234 3.4285 29.8075 3.4285Z" fill="#F8981D"/>
<path fill-rule="evenodd" clip-rule="evenodd" d="M57.8697 8.79249C59.594 7.06963 61.8852 6.12078 64.3217 6.12078C69.353 6.12078 73.4464 10.2132 73.4464 15.2438C73.4464 15.9872 74.049 16.5899 74.7926 16.5899C75.5361 16.5899 76.1387 15.9872 76.1387 15.2438C76.1384 8.72877 70.8374 3.4285 64.3216 3.4285C61.1667 3.4285 58.1996 4.65707 55.9663 6.88835C53.7339 9.12049 52.5048 12.0876 52.5048 15.2436V25.7937H20.683V16.1409C20.683 15.3975 20.0803 14.7948 19.3368 14.7948C18.5934 14.7948 17.9907 15.3975 17.9907 16.1409V61.1539C17.9907 61.8974 18.5933 62.5 19.3368 62.5C20.0802 62.5 20.6828 61.8974 20.6828 61.1539V56.1411H52.5045V58.6537C52.5045 59.3972 53.1073 60 53.8508 60C54.5944 60 55.1972 59.3972 55.1972 58.6537V15.2436C55.197 12.8068 56.1463 10.5156 57.8697 8.79249ZM52.5048 39.6213H49.9773C49.2338 39.6213 48.6312 40.224 48.6312 40.9674C48.6312 41.7109 49.2338 42.3136 49.9773 42.3136H52.5048V53.4488H20.683V42.3136H45.4902C46.2338 42.3136 46.8363 41.7109 46.8363 40.9674C46.8363 40.224 46.2338 39.6213 45.4902 39.6213H20.6828V28.486H52.5048V39.6213Z" fill="#F8981D"/>
<path d="M73.847 73.8792C70.8279 73.8792 69.3956 72.9083 67.7372 71.7843C65.968 70.585 63.9627 69.2256 60.1169 69.2256C56.271 69.2256 54.2656 70.585 52.4966 71.7843C51.6742 72.3418 50.8975 72.8683 49.9559 73.2512C49.2672 73.5313 48.9359 74.3166 49.216 75.0052C49.496 75.6936 50.2816 76.0252 50.9699 75.745C52.1736 75.2555 53.1058 74.6236 54.007 74.0128C55.6655 72.8886 57.0977 71.9179 60.1169 71.9179C63.136 71.9179 64.5683 72.8888 66.2267 74.0128C67.9957 75.2119 70.001 76.5713 73.847 76.5713C74.5906 76.5713 75.1931 75.9686 75.1931 75.2252C75.193 74.4819 74.5904 73.8792 73.847 73.8792Z" fill="#1998A7"/>
<path d="M46.3866 73.8792C43.3678 73.8792 41.9359 72.9083 40.2779 71.7843C38.5088 70.585 36.5037 69.2256 32.6584 69.2256C28.8132 69.2256 26.8081 70.585 25.0391 71.7843C23.3811 72.9085 21.9493 73.8792 18.9305 73.8792C15.9131 73.8792 14.482 72.9083 12.8247 71.7845C11.0563 70.5852 9.05185 69.2258 5.20771 69.2258C4.46429 69.2258 3.86157 69.8285 3.86157 70.5719C3.86157 71.3153 4.46429 71.918 5.20771 71.918C8.22514 71.918 9.65628 72.8889 11.3138 74.0128C13.0823 75.2122 15.0867 76.5716 18.9308 76.5716C22.776 76.5716 24.7811 75.2122 26.5501 74.0129C28.2081 72.8888 29.6399 71.918 32.6587 71.918C35.6775 71.918 37.1094 72.8889 38.7676 74.0129C40.5368 75.2122 42.5419 76.5716 46.3872 76.5716C47.1308 76.5716 47.7333 75.9689 47.7333 75.2255C47.7331 74.482 47.1301 73.8792 46.3866 73.8792Z" fill="#1998A7"/>
<path d="M73.847 54.2095C70.8279 54.2097 69.3956 53.2387 67.7372 52.1147C65.968 50.9154 63.9627 49.556 60.1169 49.556C59.2069 49.556 58.3792 49.6293 57.5865 49.7795C56.8562 49.9181 56.3765 50.6227 56.515 51.353C56.6536 52.0834 57.3577 52.5627 58.0886 52.4244C58.7139 52.3055 59.3775 52.248 60.117 52.248C63.1362 52.248 64.5684 53.2188 66.2269 54.3428C67.996 55.5421 70.0013 56.9015 73.8471 56.9015C74.5907 56.9015 75.1933 56.2988 75.1933 55.5554C75.1933 54.812 74.5906 54.2095 73.847 54.2095Z" fill="#1998A7"/>
<path d="M15.364 53.5815C14.423 53.1985 13.6466 52.6721 12.8247 52.1147C11.0563 50.9152 9.05185 49.5558 5.20771 49.5558C4.46429 49.5558 3.86157 50.1585 3.86157 50.902C3.86157 51.6454 4.46414 52.2482 5.20743 52.2482C8.22485 52.2482 9.65599 53.2191 11.3133 54.343C12.2143 54.954 13.1457 55.5857 14.349 56.0752C14.5151 56.1429 14.687 56.1748 14.856 56.1748C15.3873 56.1748 15.8907 55.8582 16.1031 55.3358C16.3837 54.6471 16.0525 53.8617 15.364 53.5815Z" fill="#1998A7"/>
<path d="M12.7133 62.5589C14.1878 63.5589 15.4864 64.4357 17.8794 64.6173C18.5899 64.6862 19.0832 64.695 20.5715 64.5231C22.4651 64.2237 23.6285 63.4394 24.9277 62.5587L24.9278 62.5586C26.6967 61.3594 28.7019 60 32.5469 60C36.392 60 38.3971 61.3593 40.1662 62.5585L40.1665 62.5587L40.1669 62.559C41.8247 63.6829 43.2566 64.6536 46.2752 64.6536C49.2943 64.6536 50.7266 63.6828 52.385 62.5587C53.3617 61.8866 53.9523 61.5394 55.0859 60.9716C56.3505 60.4069 57.9026 60 60.0057 60C63.8515 60 65.8568 61.3594 67.6259 62.5586L67.626 62.5587L67.6263 62.5589C69.2846 63.6828 70.7169 64.6536 73.7358 64.6536C74.4794 64.6536 75.082 65.2563 75.082 65.9997C75.082 66.7431 74.4794 67.3458 73.7358 67.3458C69.8899 67.3458 67.8847 65.9865 66.1156 64.7872L66.1154 64.7871L66.1149 64.7868C64.4567 63.6629 63.0245 62.6923 60.0056 62.6923C56.9863 62.6923 55.5542 63.663 53.8957 64.7871C52.1266 65.9864 50.1212 67.3458 46.2753 67.3458C42.4303 67.3458 40.4252 65.9866 38.6561 64.7874L38.6558 64.7871L38.655 64.7866C36.997 63.6628 35.5651 62.6923 32.5468 62.6923C29.5282 62.6923 28.0962 63.663 26.4382 64.7871L26.4381 64.7872C24.6692 65.9865 22.664 67.3458 18.819 67.3458C14.975 67.3458 12.9708 65.9866 11.2023 64.7872L11.202 64.787L11.2011 64.7864C9.5442 63.6628 8.11304 62.6923 5.09614 62.6923C4.35271 62.6923 3.75 62.0896 3.75 61.3461C3.75 60.6027 4.35271 60 5.09614 60C8.94021 60 10.9445 61.3593 12.713 62.5587L12.7133 62.5589Z" fill="#1998A7"/>
</svg>
