<svg width="80" height="80" viewBox="0 0 80 80" fill="none" xmlns="http://www.w3.org/2000/svg">
<path d="M75.3424 10.5406H16.3404C15.6616 10.5406 15.1114 11.0909 15.1114 11.7696C15.1114 12.4483 15.6616 12.9986 16.3404 12.9986H74.1134V55.909H5.88657V12.9986H12.6257C13.3046 12.9986 13.8547 12.4483 13.8547 11.7696C13.8547 11.0909 13.3046 10.5406 12.6257 10.5406H4.65757C3.97871 10.5406 3.42857 11.0909 3.42857 11.7696V57.138C3.42857 57.8167 3.97871 58.367 4.65757 58.367H26.4807V61.7574H23.4491C19.88 61.7574 16.9763 64.6612 16.9763 68.2303C16.9763 68.909 17.5264 69.4593 18.2053 69.4593H61.7947C62.4736 69.4593 63.0237 68.909 63.0237 68.2303C63.0237 64.6612 60.12 61.7574 56.5509 61.7574H53.5193V58.3672H75.3424C76.0213 58.3672 76.5714 57.8169 76.5714 57.1382V11.7696C76.5714 11.0909 76.0211 10.5406 75.3424 10.5406ZM28.9387 58.3673H51.0611V61.7577H28.9387V58.3673ZM56.5509 64.2157C58.336 64.2157 59.853 65.387 60.3733 67.0016H19.6267C20.147 65.387 21.664 64.2157 23.4491 64.2157H56.5509Z" fill="#1998A7"/>
<path d="M70.59 41.0554C71.2689 41.0554 71.819 40.5052 71.819 39.8264V16.5219C71.819 15.8432 71.2689 15.2929 70.59 15.2929H9.40973C8.73088 15.2929 8.18073 15.8432 8.18073 16.5219V52.386C8.18073 53.0647 8.73088 53.615 9.40973 53.615H70.59C71.2689 53.615 71.819 53.0647 71.819 52.386V43.7596C71.819 43.0809 71.2689 42.5306 70.59 42.5306C69.9111 42.5306 69.361 43.0809 69.361 43.7596V51.157H10.6387V17.7509H69.361V39.8264C69.361 40.5052 69.9111 41.0554 70.59 41.0554Z" fill="#1998A7"/>
<path d="M36.4491 23.6657H24.432C23.7531 23.6657 23.203 24.216 23.203 24.8947C23.203 25.5734 23.7531 26.1237 24.432 26.1237H29.3207V44.013C29.3207 44.6917 29.8708 45.242 30.5497 45.242C31.2286 45.242 31.7787 44.6917 31.7787 44.013V26.1239H36.449C37.1278 26.1239 37.678 25.5736 37.678 24.8949C37.6781 24.216 37.128 23.6657 36.4491 23.6657Z" fill="#F8981D"/>
<path d="M43.9247 28.2573L42.5167 24.4669C42.2805 23.8306 41.5727 23.5064 40.9367 23.7427C40.3004 23.979 39.9763 24.6864 40.2125 25.3227L41.6205 29.1131C41.8044 29.6083 42.2737 29.9144 42.7727 29.9144C42.9148 29.9144 43.0594 29.8896 43.2004 29.8373C43.8368 29.601 44.161 28.8936 43.9247 28.2573Z" fill="#F8981D"/>
<path d="M55.9957 23.7426C55.3597 23.5061 54.652 23.8304 54.4157 24.4667L48.466 40.4833L45.0599 31.313C44.8237 30.6767 44.1159 30.3526 43.4799 30.5888C42.8436 30.8251 42.5194 31.5326 42.7557 32.1688L47.3143 44.441C47.493 44.9226 47.9527 45.242 48.4663 45.242C48.9799 45.242 49.4396 44.9224 49.6183 44.441L56.7199 25.3227C56.9561 24.6863 56.632 23.9788 55.9957 23.7426Z" fill="#F8981D"/>
</svg>
