<svg width="80" height="80" viewBox="0 0 80 80" fill="none" xmlns="http://www.w3.org/2000/svg">
<path d="M65.985 25.4837H60.7735C56.0241 18.6907 48.3088 14.6566 40 14.6566C31.6896 14.6566 23.9759 18.6907 19.2249 25.4837H14.015C8.17805 25.4837 3.42857 30.2332 3.42857 36.0702V43.9298C3.42857 49.7668 8.17805 54.5163 14.015 54.5163H19.2249C23.9759 61.3093 31.6896 65.3434 40 65.3434C48.3088 65.3434 56.0241 61.3093 60.7735 54.5163H65.985C71.822 54.5163 76.5714 49.7668 76.5714 43.9298V36.0702C76.5714 30.2332 71.822 25.4837 65.985 25.4837ZM18.5865 51.8969C18.4598 51.8969 18.3362 51.9162 18.2208 51.9499H14.015C9.59278 51.9499 5.99499 48.3521 5.99499 43.9298V36.0702C5.99499 31.6479 9.59278 28.0501 14.015 28.0501H19.905C20.3348 28.0501 20.7374 27.8336 20.9748 27.4743C25.211 21.055 32.3232 17.2231 40 17.2231C46.8812 17.2231 53.3069 20.3028 57.6152 25.5639H46.87C42.9642 25.5639 39.7851 28.7415 39.7851 32.6488V47.3785C39.7851 49.8695 37.7592 51.8969 35.2682 51.8969H18.5865ZM74.005 43.9298C74.005 48.3521 70.4072 51.9499 65.985 51.9499H60.095C59.6636 51.9499 59.261 52.1664 59.0236 52.5257C54.789 58.945 47.6768 62.7769 40 62.7769C33.13 62.7769 26.7156 59.7069 22.4072 54.4634H35.2682C39.1739 54.4634 42.3515 51.2842 42.3515 47.3785V32.6488C42.3515 30.1578 44.379 28.1303 46.87 28.1303H60.7976C60.9548 28.1303 61.1024 28.1015 61.2419 28.0501H65.985C70.4072 28.0501 74.005 31.6479 74.005 36.0702V43.9298Z" fill="#1998A7"/>
<path d="M62.5364 37.9148C61.8274 37.9148 61.2531 38.489 61.2531 39.198V46.8973C61.2531 47.6062 61.8274 48.1805 62.5364 48.1805C63.2453 48.1805 63.8196 47.6062 63.8196 46.8973V39.198C63.8196 38.489 63.2453 37.9148 62.5364 37.9148Z" fill="#F8981D"/>
<path d="M62.5364 33.9048C61.8274 33.9048 61.2531 34.479 61.2531 35.188V35.5088C61.2531 36.2178 61.8274 36.792 62.5364 36.792C63.2453 36.792 63.8196 36.2178 63.8196 35.5088V35.188C63.8196 34.479 63.2453 33.9048 62.5364 33.9048Z" fill="#F8981D"/>
<path d="M56.6015 36.1504C57.3105 36.1504 57.8847 35.5761 57.8847 34.8672C57.8847 34.1582 57.3105 33.584 56.6015 33.584H50.3459C49.7796 33.584 49.3 33.9513 49.13 34.4582C48.9857 34.6667 48.9023 34.9169 48.9023 35.188V46.7369C48.9023 47.4458 49.4765 48.0201 50.1855 48.0201C50.8944 48.0201 51.4687 47.4458 51.4687 46.7369V42.0852H56.6015C57.3105 42.0852 57.8847 41.511 57.8847 40.802C57.8847 40.093 57.3105 39.5188 56.6015 39.5188H51.4687V36.1504H56.6015Z" fill="#F8981D"/>
<path d="M26.7369 33.9385C26.0465 33.7784 25.3568 34.2071 25.1961 34.8973L23.7191 41.2399L22.2422 34.8973L22.241 34.8976C22.1334 34.437 21.7754 34.0533 21.2834 33.9386C20.5929 33.7785 19.9033 34.2073 19.7426 34.8975L18.2657 41.2401L16.7887 34.8975C16.628 34.2071 15.9379 33.778 15.2479 33.9386C14.5577 34.0995 14.1284 34.7894 14.2892 35.4794L17.016 47.1887C17.1539 47.7811 17.6815 48.1813 18.2647 48.1813C18.3611 48.1813 18.4589 48.1704 18.5568 48.1476C19.0487 48.0329 19.4066 47.6492 19.5144 47.1885L19.5155 47.1889L20.9925 40.8463L22.4694 47.1889C22.6074 47.7812 23.1349 48.1814 23.7182 48.1814C23.8146 48.1814 23.9124 48.1705 24.0103 48.1477C24.5022 48.033 24.8601 47.6494 24.9679 47.1887L24.969 47.189L27.6958 35.4797C27.8564 34.7892 27.4271 34.0993 26.7369 33.9385Z" fill="#F8981D"/>
<path d="M32.06 37.9151C31.3514 37.9151 30.7768 38.4897 30.7768 39.1983V46.8976C30.7768 47.6062 31.3514 48.1808 32.06 48.1808C32.7687 48.1808 33.3432 47.6062 33.3432 46.8976V39.1983C33.3432 38.4897 32.7687 37.9151 32.06 37.9151Z" fill="#F8981D"/>
<path d="M32.06 33.9051C31.3514 33.9051 30.7768 34.4796 30.7768 35.1883V35.5091C30.7768 36.2178 31.3514 36.7923 32.06 36.7923C32.7687 36.7923 33.3432 36.2178 33.3432 35.5091V35.1883C33.3432 34.4796 32.7687 33.9051 32.06 33.9051Z" fill="#F8981D"/>
</svg>
