<svg width="80" height="80" viewBox="0 0 80 80" fill="none" xmlns="http://www.w3.org/2000/svg">
<path d="M66.7536 25.2732C66.7536 27.574 64.8818 29.4458 62.581 29.4458H61.1131C59.6322 34.7132 56.0086 39.2377 51.2392 42.0594L58.8627 72.5303C59.0271 73.1878 58.6275 73.8542 57.97 74.0187C57.8702 74.0437 57.7698 74.0556 57.6714 74.0556C57.1216 74.0556 56.6212 73.6835 56.4817 73.1258L53.8907 62.7699L41.2273 70.1581V75.3441C41.2273 76.0218 40.6778 76.5713 40.0001 76.5713C39.3223 76.5713 38.7728 76.0218 38.7728 75.3441V70.1581L26.1094 62.7699L23.5184 73.1258C23.379 73.6835 22.8786 74.0556 22.3288 74.0556C22.2301 74.0556 22.13 74.0437 22.0301 74.0187C21.3726 73.8542 20.9728 73.1878 21.1374 72.5303L28.761 42.0594C23.9915 39.2375 20.3681 34.7132 18.887 29.4458H17.4189C15.1182 29.4458 13.2464 27.574 13.2464 25.2732C13.2464 22.9725 15.1182 21.1006 17.4189 21.1006H19.3632C20.4948 19.736 22.4001 18.5239 24.9902 17.5526C29.0187 16.0419 34.3493 15.21 39.9999 15.21C45.6505 15.21 50.9811 16.0419 55.0097 17.5526C57.5997 18.5239 59.505 19.736 60.6366 21.1006H62.5809C64.8818 21.1006 66.7536 22.9725 66.7536 25.2732ZM18.3636 26.9915C18.2274 26.0659 18.1553 25.1238 18.1553 24.1687C18.1553 23.9624 18.1721 23.7579 18.2022 23.5551H17.4189C16.4715 23.5551 15.7008 24.3258 15.7008 25.2732C15.7008 26.2206 16.4715 26.9913 17.4189 26.9913L18.3636 26.9915ZM26.8878 59.659H38.7727V45.1187C36.0304 44.9644 33.4049 44.2977 31.0008 43.2191L26.8878 59.659ZM38.7727 67.3166V62.1135H29.8543L38.7727 67.3166ZM50.1455 62.1135H41.2271V67.3166L50.1455 62.1135ZM48.9992 43.2191C46.5949 44.2977 43.9694 44.9644 41.2273 45.1187V59.659H53.1124L48.9992 43.2191ZM58.707 28.9446C58.5467 29.0526 58.3793 29.1603 58.2029 29.2675C57.6236 29.6201 56.8688 29.4361 56.5165 28.8572C56.1642 28.2782 56.3478 27.5232 56.9269 27.1708C58.5154 26.2041 59.3902 25.1379 59.3902 24.1687C59.3902 23.791 59.2605 23.4038 59.0133 23.0163C59.0118 23.0142 59.0106 23.0121 59.009 23.0099C58.2903 21.8887 56.5837 20.7642 54.1478 19.8507C50.3881 18.4409 45.3635 17.6644 39.9999 17.6644C34.6363 17.6644 29.6117 18.4409 25.852 19.8507C23.4348 20.7572 21.7362 21.8713 21.008 22.9838C20.9977 22.9999 20.9874 23.0159 20.9765 23.0315C20.7357 23.414 20.6097 23.7958 20.6097 24.1686C20.6097 25.6414 22.5695 27.2555 25.8521 28.4864C29.6119 29.8963 34.6365 30.6729 40.0001 30.6729C44.1381 30.6729 48.1047 30.2074 51.4708 29.3271C52.1258 29.1556 52.7971 29.5478 52.9686 30.2038C53.1401 30.8594 52.7477 31.5301 52.0919 31.7016C48.5259 32.6344 44.3446 33.1275 40.0001 33.1275C34.3495 33.1275 29.0188 32.2954 24.9903 30.7848C23.5353 30.2392 22.2976 29.6173 21.2902 28.9353C22.679 33.7322 26.0922 37.8205 30.5527 40.2664C30.7009 40.3133 30.8344 40.3857 30.9496 40.4784C33.6693 41.8909 36.7567 42.6998 39.9999 42.6998C43.2432 42.6998 46.3307 41.8909 49.0504 40.4784C49.1656 40.3857 49.2991 40.3133 49.4473 40.2664C53.9048 37.8222 57.3165 33.7374 58.707 28.9446ZM64.2991 25.2732C64.2991 24.3258 63.5285 23.5551 62.581 23.5551H61.7978C61.8278 23.7579 61.8447 23.9624 61.8447 24.1687C61.8447 25.1238 61.7726 26.0659 61.6364 26.9913H62.581C63.5283 26.9915 64.2991 26.2206 64.2991 25.2732Z" fill="#1998A7"/>
<path d="M33.3729 28.2184V20.3642C33.3729 19.6865 32.8234 19.137 32.1457 19.137C31.4679 19.137 30.9185 19.6865 30.9185 20.3642V28.2184C30.9185 28.8962 31.4679 29.4457 32.1457 29.4457C32.8234 29.4457 33.3729 28.8962 33.3729 28.2184Z" fill="#F8981D"/>
<path d="M38.7727 20.3642C38.7727 19.6865 39.3222 19.137 39.9999 19.137C40.6777 19.137 41.2272 19.6865 41.2272 20.3642V28.2184C41.2272 28.8962 40.6777 29.4457 39.9999 29.4457C39.3222 29.4457 38.7727 28.8962 38.7727 28.2184V20.3642Z" fill="#F8981D"/>
<path d="M46.6271 20.3642C46.6271 19.6865 47.1766 19.137 47.8543 19.137C48.5321 19.137 49.0816 19.6865 49.0816 20.3642V28.2184C49.0816 28.8962 48.5321 29.4457 47.8543 29.4457C47.1766 29.4457 46.6271 28.8962 46.6271 28.2184V20.3642Z" fill="#F8981D"/>
<path d="M31.8389 12.51C31.8389 13.1877 31.2894 13.7372 30.6116 13.7372C29.9339 13.7372 29.3844 13.1877 29.3844 12.51C29.3844 10.1243 30.3791 8.8509 31.1783 7.82775L31.1785 7.82749L31.1788 7.827C31.8904 6.91601 32.4525 6.19653 32.4525 4.65572C32.4525 3.97799 33.002 3.4285 33.6797 3.4285C34.3574 3.4285 34.9069 3.97799 34.9069 4.65572C34.9069 7.04181 33.9122 8.31505 33.1128 9.33822L33.1127 9.33836L33.1121 9.33914C32.4008 10.25 31.8389 10.9695 31.8389 12.51Z" fill="#F8981D"/>
<path d="M39.6931 12.51C39.6931 13.1877 39.1436 13.7372 38.4659 13.7372C37.7881 13.7372 37.2386 13.1877 37.2386 12.51C37.2386 10.1243 38.2333 8.85091 39.0325 7.82775L39.0327 7.82749L39.0331 7.82699C39.7447 6.91601 40.3067 6.19653 40.3067 4.65572C40.3067 3.97799 40.8562 3.4285 41.5339 3.4285C42.2117 3.4285 42.7612 3.97799 42.7612 4.65572C42.7612 7.0418 41.7664 8.31504 40.9671 9.33822L40.967 9.33836L40.9664 9.33913C40.255 10.25 39.6931 10.9695 39.6931 12.51Z" fill="#F8981D"/>
<path d="M47.5475 12.51C47.5475 13.1877 46.998 13.7372 46.3203 13.7372C45.6425 13.7372 45.0931 13.1877 45.0931 12.51C45.0931 10.1243 46.0877 8.8509 46.8869 7.82774L46.8871 7.82749L46.8875 7.82699C47.5991 6.91601 48.1611 6.19653 48.1611 4.65572C48.1611 3.97799 48.7106 3.4285 49.3883 3.4285C50.0661 3.4285 50.6156 3.97799 50.6156 4.65572C50.6156 7.04176 49.6208 8.31516 48.8214 9.33836L48.8208 9.33913C48.1094 10.25 47.5475 10.9695 47.5475 12.51Z" fill="#F8981D"/>
</svg>
