<svg width="80" height="80" viewBox="0 0 80 80" fill="none" xmlns="http://www.w3.org/2000/svg">
<path fill-rule="evenodd" clip-rule="evenodd" d="M50.4033 59.348L11.4153 59.348C8.34561 59.348 5.85715 61.8365 5.85715 64.9062C5.85715 67.9759 8.34561 70.4643 11.4153 70.4643H12.2093V74.8904C12.2093 75.7674 12.9203 76.4784 13.7973 76.4784C14.6744 76.4784 15.3854 75.7674 15.3854 74.8904V70.4643H43.9701H47.1462H53.4983V74.8904C53.4983 75.7674 54.2093 76.4784 55.0864 76.4784C55.9634 76.4784 56.6744 75.7674 56.6744 74.8904V68.7953L72.5151 52.9562C74.685 50.7857 74.685 47.2674 72.5151 45.097C70.3157 42.997 66.8538 42.997 64.6543 45.097L50.4033 59.348ZM47.9402 62.5241C47.9402 63.4012 47.2292 64.1122 46.3522 64.1122C45.4751 64.1122 44.7641 63.4012 44.7641 62.5241H41.588C41.588 63.4012 40.8771 64.1122 40 64.1122C39.123 64.1122 38.412 63.4012 38.412 62.5241H35.2359C35.2359 63.4012 34.5249 64.1122 33.6478 64.1122C32.7708 64.1122 32.0598 63.4012 32.0598 62.5241H28.8837C28.8837 63.4012 28.1727 64.1122 27.2957 64.1122C26.4186 64.1122 25.7076 63.4012 25.7076 62.5241H22.5316C22.5316 63.4012 21.8206 64.1122 20.9435 64.1122C20.0665 64.1122 19.3555 63.4012 19.3555 62.5241H16.1794C16.1794 63.4012 15.4684 64.1122 14.5914 64.1122C13.7143 64.1122 13.0033 63.4012 13.0033 62.5241H11.4153C10.0998 62.5241 9.03323 63.5907 9.03323 64.9062C9.03323 66.2217 10.0998 67.2882 11.4153 67.2882H52.7043C53.3387 67.2908 53.948 67.0391 54.3956 66.5895L70.276 50.7091C71.206 49.7789 71.206 48.2711 70.276 47.3409C69.3333 46.4402 67.8489 46.4402 66.9062 47.3409L66.0439 48.2032L66.5336 48.6948C67.1528 49.3165 67.1518 50.3221 66.5314 50.9425C65.911 51.563 64.9053 51.564 64.2837 50.9448L63.792 50.455L61.2797 52.9673L61.7695 53.459C62.3887 54.0806 62.3877 55.0862 61.7673 55.7067C61.1468 56.3271 60.1412 56.3281 59.5196 55.7089L59.0279 55.2191L56.5156 57.7314L57.0045 58.2222C57.6242 58.8444 57.6232 59.8507 57.0023 60.4716C56.3821 61.0918 55.377 61.0936 54.7546 60.4755L54.259 59.9832L51.7182 62.5241H47.9402Z" fill="#F8981D"/>
<path d="M43.9701 74.8905C43.9701 75.7675 44.6811 76.4785 45.5581 76.4785C46.4352 76.4785 47.1462 75.7675 47.1462 74.8905V72.5002H43.9701V74.8905Z" fill="#1998A7"/>
<path fill-rule="evenodd" clip-rule="evenodd" d="M48.7342 3.52509C61.5014 3.54026 72.0646 14.2748 73.8704 26.7798C74.1667 28.8313 72.4612 30.5218 70.3884 30.5218H47.1462V56.0085C47.1462 56.8856 46.4352 57.5966 45.5582 57.5966C44.6811 57.5966 43.9701 56.8856 43.9701 56.0085V30.5218L20.7279 30.5218C18.6551 30.5218 16.9497 28.8313 17.2459 26.7798C19.0517 14.2748 29.6149 3.54026 42.3821 3.52509H48.7342ZM33.8464 27.3457H21.2805C20.6997 27.3457 20.239 26.8519 20.3087 26.2752C21.6458 15.217 31.0088 6.77656 42.2582 6.70117L39.5919 10.0519C35.9013 14.661 33.8765 20.3819 33.8464 26.2865V27.3457ZM37.0225 26.2865V27.3457H43.9701V9.65492L42.0772 12.0306C38.833 16.0768 37.0516 21.1005 37.0225 26.2865ZM47.1462 9.65492L49.0392 12.037C52.2833 16.0831 54.0647 21.1069 54.0939 26.2928V27.3457H47.1462V9.65492ZM57.27 27.3457H69.8358C70.4167 27.3457 70.8774 26.8519 70.8076 26.2752C69.4705 15.217 60.1075 6.77656 48.8581 6.70117L51.5244 10.0519C55.215 14.661 57.2398 20.3819 57.27 26.2865V27.3457Z" fill="#1998A7"/>
</svg>
