<svg width="80" height="80" viewBox="0 0 80 80" fill="none" xmlns="http://www.w3.org/2000/svg">
<path d="M55.1279 23.7386V6.74749C55.1279 5.98212 55.7484 5.36157 56.5138 5.36157C57.2792 5.36157 57.8997 5.98212 57.8997 6.74749V23.7386C57.8997 24.504 57.2792 25.1245 56.5138 25.1245C55.7484 25.1245 55.1279 24.504 55.1279 23.7386ZM51.2941 25.1245C52.0595 25.1245 52.68 24.504 52.68 23.7386V6.74749C52.68 5.98212 52.0595 5.36157 51.2941 5.36157C50.5287 5.36157 49.9082 5.98212 49.9082 6.74749V23.7386C49.9082 24.504 50.5287 25.1245 51.2941 25.1245ZM31.6437 47.0516V70.2387C31.6437 72.6647 29.6699 74.6384 27.2438 74.6384C24.8179 74.6384 22.8442 72.6647 22.8442 70.2387V47.0516C22.8442 45.1098 24.1089 43.4574 25.8579 42.8755V31.5138C20.5975 30.6789 16.5208 25.1576 16.5208 18.4922C16.5208 11.2519 21.3311 5.36157 27.2438 5.36157C33.1566 5.36157 37.967 11.2519 37.967 18.4922C37.967 25.1576 33.8903 30.6789 28.6297 31.5138V42.8755C30.3791 43.4572 31.6437 45.1094 31.6437 47.0516ZM27.2438 28.8511C31.6281 28.8511 35.1951 24.2041 35.1951 18.4922C35.1951 12.7804 31.6281 8.1334 27.2438 8.1334C22.8595 8.1334 19.2926 12.7804 19.2926 18.4922C19.2926 24.2041 22.8595 28.8511 27.2438 28.8511ZM28.8719 47.0516C28.8719 46.1541 28.1415 45.4239 27.2438 45.4239C26.3463 45.4239 25.616 46.1541 25.616 47.0516V70.2387C25.616 71.1364 26.3463 71.8666 27.2438 71.8666C28.1415 71.8666 28.8719 71.1362 28.8719 70.2387V47.0516ZM58.3039 47.0516V70.2387C58.3039 72.6647 56.33 74.6384 53.904 74.6384C51.4779 74.6384 49.5044 72.6647 49.5044 70.2387V47.0516C49.5044 45.1098 50.7692 43.4574 52.518 42.8755V31.5191C48.0914 30.8489 44.6883 27.0182 44.6883 22.4075V6.74749C44.6883 5.98212 45.3089 5.36157 46.0742 5.36157C46.8396 5.36157 47.4601 5.98212 47.4601 6.74749V22.4075C47.4601 25.9538 50.3401 28.8403 53.884 28.8513C53.8972 28.8511 53.9107 28.8511 53.9239 28.8513C57.4678 28.8403 60.3479 25.9538 60.3479 22.4075V6.74749C60.3479 5.98212 60.9685 5.36157 61.7338 5.36157C62.4992 5.36157 63.1198 5.98212 63.1198 6.74749V22.4075C63.1198 27.0182 59.7165 30.8489 55.2899 31.5191V42.8755C57.0391 43.4572 58.3039 45.1094 58.3039 47.0516ZM55.5321 47.0516C55.5321 46.1541 54.8017 45.4239 53.904 45.4239C53.0062 45.4239 52.2762 46.1541 52.2762 47.0516V70.2387C52.2762 71.1364 53.0064 71.8666 53.904 71.8666C54.8019 71.8666 55.5321 71.1362 55.5321 70.2387V47.0516Z" fill="#1998A7"/>
<path d="M21.9762 36.6812C22.7416 36.6812 23.3622 37.3017 23.3622 38.0671C23.3622 38.8326 22.7416 39.453 21.9762 39.4532H8.16041L19.9338 51.2265C20.4751 51.7677 20.4751 52.6452 19.9338 53.1864C19.6632 53.457 19.3085 53.5923 18.9537 53.5923C18.5989 53.5923 18.2443 53.457 17.9737 53.1864L3.83445 39.0469C3.43808 38.6505 3.31958 38.0544 3.53405 37.5366C3.74852 37.0188 4.25386 36.6812 4.81447 36.6812H21.9762Z" fill="#F8981D"/>
<path d="M48.775 36.6815C49.5403 36.6815 50.1609 37.302 50.1609 38.0674C50.1609 38.8329 49.5403 39.4533 48.7751 39.4533H32.5345C31.7691 39.4533 31.1486 38.8328 31.1486 38.0674C31.1486 37.302 31.7691 36.6815 32.5345 36.6815H48.775Z" fill="#F8981D"/>
<path d="M40.0001 71.2926L45.4268 65.8656C45.968 65.3246 46.8454 65.3242 47.3865 65.8654C47.9278 66.4068 47.9278 67.2841 47.3866 67.8254L40.9801 74.2323C40.72 74.4922 40.3677 74.6382 40.0001 74.6382C39.6324 74.6382 39.2799 74.4922 39.02 74.2323L33.9982 69.2107C33.457 68.6695 33.457 67.792 33.9982 67.2508C34.5396 66.7096 35.417 66.7096 35.9582 67.2508L40.0001 71.2926Z" fill="#F8981D"/>
<path d="M75.1855 36.6813C75.7461 36.6813 76.2514 37.019 76.4659 37.5368C76.6804 38.0546 76.5621 38.6507 76.1655 39.0471L62.5943 52.6183C62.3237 52.8889 61.9691 53.0242 61.6143 53.0242C61.2597 53.0242 60.905 52.8889 60.6343 52.6183C60.0931 52.0771 60.0931 51.1997 60.6343 50.6585L71.8397 39.4532H58.3484C57.583 39.4532 56.9625 38.8326 56.9625 38.0673C56.9625 37.3019 57.583 36.6813 58.3484 36.6813H75.1855Z" fill="#F8981D"/>
</svg>
