<svg width="80" height="80" viewBox="0 0 80 80" fill="none" xmlns="http://www.w3.org/2000/svg">
<path d="M36.6667 60H13.3333V26.6667L40 43.3333L66.6667 26.6667V33.3333H73.3333V20C73.3333 16.3333 70.3333 13.3333 66.6667 13.3333H13.3333C9.66666 13.3333 6.66666 16.3333 6.66666 20V60C6.66666 63.6667 9.66666 66.6667 13.3333 66.6667H36.6667V60ZM66.6667 20L40 36.6667L13.3333 20H66.6667Z" fill="#1998A7"/>
<path d="M43.3334 66.4659L63.5667 46.266L70.4 53.0993L50.2 73.3326H43.3334V66.4659Z" fill="#F8981D"/>
<path d="M71.4 40.9993L75.6667 45.2659C76.3 45.9326 76.3 46.9993 75.6667 47.6659L72.3334 50.9993L65.5 44.3326L68.8334 40.9993C69.1667 40.6326 69.6334 40.466 70.1334 40.4326C70.3723 40.4341 70.6082 40.4853 70.8263 40.5828C71.0443 40.6804 71.2397 40.8222 71.4 40.9993Z" fill="#F8981D"/>
</svg>
