<svg width="80" height="80" viewBox="0 0 80 80" fill="none" xmlns="http://www.w3.org/2000/svg">
<path d="M16.8609 56.9304C17.3121 57.3835 17.658 57.9304 17.8736 58.5324C18.0893 59.1344 18.1696 59.7765 18.1087 60.4131C17.8031 63.359 17.2238 66.2702 16.3782 69.1087C22.4435 67.7044 26.1478 66.0783 27.8304 65.2261C28.7848 64.7427 29.8838 64.6282 30.9174 64.9044C33.8801 65.6942 36.9337 66.0918 40 66.087C57.3739 66.087 70.4348 53.8826 70.4348 40C70.4348 26.1217 57.3739 13.913 40 13.913C22.6261 13.913 9.5652 26.1217 9.5652 40C9.5652 46.3826 12.2478 52.3044 16.8609 56.9304ZM14.7174 73.9087C13.6872 74.1129 12.6538 74.2999 11.6174 74.4696C10.7478 74.6087 10.0869 73.7044 10.4304 72.8957C10.8165 71.9852 11.1703 71.0615 11.4913 70.1261L11.5043 70.0826C12.5826 66.9522 13.4609 63.3522 13.7826 60C8.44781 54.6522 5.21738 47.6522 5.21738 40C5.21738 23.1913 20.7913 9.56522 40 9.56522C59.2087 9.56522 74.7826 23.1913 74.7826 40C74.7826 56.8087 59.2087 70.4348 40 70.4348C36.555 70.4394 33.1243 69.9921 29.7956 69.1044C27.5348 70.2478 22.6696 72.3304 14.7174 73.9087Z" fill="#1998A7"/>
<path d="M35.9391 34.6087C35.0922 33.2898 33.84 32.2814 32.3709 31.735C30.9018 31.1887 29.295 31.134 27.7921 31.5791C26.2892 32.0241 24.9713 32.945 24.0366 34.2032C23.1019 35.4615 22.6008 36.9891 22.6087 38.5565C22.6095 39.8545 22.9588 41.1284 23.6202 42.2453C24.2815 43.3621 25.2307 44.2808 26.3685 44.9055C27.5063 45.5301 28.7909 45.8378 30.0882 45.7963C31.3856 45.7548 32.6479 45.3657 33.7435 44.6696C33.1739 46.3609 32.113 48.1652 30.3652 49.9739C30.0308 50.3198 29.8475 50.7844 29.8557 51.2655C29.8597 51.5037 29.9106 51.7388 30.0055 51.9573C30.1004 52.1759 30.2374 52.3735 30.4087 52.5391C30.58 52.7047 30.7822 52.8349 31.0038 52.9224C31.2254 53.0098 31.4621 53.0527 31.7003 53.0487C32.1814 53.0405 32.6395 52.8416 32.9739 52.4956C39.4348 45.8 38.5956 38.5217 35.9391 34.6174V34.6087ZM53.3304 34.6087C52.4835 33.2898 51.2314 32.2814 49.7622 31.735C48.2931 31.1887 46.6863 31.134 45.1834 31.5791C43.6805 32.0241 42.3626 32.945 41.4279 34.2032C40.4932 35.4615 39.9921 36.9891 40 38.5565C40.0008 39.8545 40.3501 41.1284 41.0115 42.2453C41.6728 43.3621 42.622 44.2808 43.7598 44.9055C44.8976 45.5301 46.1822 45.8378 47.4796 45.7963C48.7769 45.7548 50.0392 45.3657 51.1348 44.6696C50.5652 46.3609 49.5043 48.1652 47.7565 49.9739C47.5909 50.1452 47.4607 50.3474 47.3733 50.569C47.2858 50.7907 47.2429 51.0273 47.247 51.2655C47.251 51.5037 47.3019 51.7388 47.3968 51.9573C47.4917 52.1759 47.6287 52.3735 47.8 52.5391C47.9713 52.7047 48.1735 52.8349 48.3951 52.9224C48.6167 53.0098 48.8534 53.0527 49.0916 53.0487C49.3298 53.0446 49.5649 52.9937 49.7834 52.8988C50.0019 52.8039 50.1996 52.6669 50.3652 52.4956C56.8261 45.8 55.9869 38.5217 53.3304 34.6174V34.6087Z" fill="#F8981D"/>
</svg>
