<svg width="80" height="80" viewBox="0 0 80 80" fill="none" xmlns="http://www.w3.org/2000/svg">
<path d="M57.4857 3.42856H22.5143C17.7143 3.42856 13.7143 7.42856 13.7143 12V28.5714V30.8571V68C13.7143 72.5714 17.7143 76.5714 22.5143 76.5714H57.6C62.2857 76.5714 66.4 72.5714 66.4 68V30.8571V28.5714V12C66.2857 7.42856 62.1714 3.42856 57.4857 3.42856ZM64 68C64 71.3143 61.0286 74.2857 57.4857 74.2857H22.5143C19.0857 74.2857 16 71.3143 16 68V30.8571H64V68ZM16 28.5714V12C16 8.6857 18.9714 5.71427 22.5143 5.71427H57.4857C60.9143 5.71427 64 8.6857 64 12V28.5714H16Z" fill="#1998A7"/>
<path d="M22.2857 9.14285C20.6857 9.14285 19.4286 10.4 19.4286 12V22.2857C19.4286 23.8857 20.6857 25.1429 22.2857 25.1429C23.8857 25.1429 25.1429 23.8857 25.1429 22.2857V12C25.1429 10.4 23.8857 9.14285 22.2857 9.14285ZM22.8572 22.2857C22.8572 22.6286 22.6286 22.8571 22.2857 22.8571C21.9429 22.8571 21.7143 22.6286 21.7143 22.2857V12C21.7143 11.6571 21.9429 11.4286 22.2857 11.4286C22.6286 11.4286 22.8572 11.6571 22.8572 12V22.2857Z" fill="#F8981D"/>
<path d="M22.2857 55.7714C23.8857 55.7714 25.1429 54.5143 25.1429 53.0286V36.9143C25.1429 35.4286 23.8857 34.1714 22.2857 34.1714C20.6857 34.1714 19.4286 35.3143 19.4286 36.9143V53.0286C19.4286 54.5143 20.6857 55.7714 22.2857 55.7714ZM21.7143 36.9143C21.7143 36.6857 21.9429 36.4571 22.2857 36.4571C22.6286 36.4571 22.8572 36.6857 22.8572 36.9143V53.0286C22.8572 53.2571 22.6286 53.4857 22.2857 53.4857C21.9429 53.4857 21.7143 53.2571 21.7143 53.0286V36.9143Z" fill="#F8981D"/>
<path d="M59.4286 14.9714C58.7429 14.9714 58.2857 15.4285 58.2857 16.1143V24C58.2857 24.6857 58.7429 25.1428 59.4286 25.1428C60.1143 25.1428 60.5715 24.6857 60.5715 24V16.1143C60.5715 15.5428 60.1143 14.9714 59.4286 14.9714Z" fill="#F8981D"/>
<path d="M59.4286 64.8C60.1143 64.8 60.5715 64.3428 60.5715 63.6571V35.5429C60.5715 34.8571 60.1143 34.4 59.4286 34.4C58.7429 34.4 58.2857 34.8571 58.2857 35.5429V63.6571C58.2857 64.2286 58.7429 64.8 59.4286 64.8Z" fill="#F8981D"/>
<path d="M59.4286 9.71426C58.7429 9.71426 58.2857 10.1714 58.2857 10.8571V12.1143C58.2857 12.8 58.7429 13.2571 59.4286 13.2571C60.1143 13.2571 60.5715 12.8 60.5715 12.1143V10.8571C60.5715 10.1714 60.1143 9.71426 59.4286 9.71426Z" fill="#F8981D"/>
</svg>
