<svg width="80" height="80" viewBox="0 0 80 80" fill="none" xmlns="http://www.w3.org/2000/svg">
<path d="M46.4014 52.6403C44.8723 54.6804 42.5391 55.8503 40 55.8503V58.094C43.2046 58.094 46.2687 56.5583 48.1969 53.9859L46.4014 52.6403Z" fill="#F8981D"/>
<path d="M46.818 14.5772C45.0206 12.1549 42.5992 10.821 40 10.821C37.4009 10.821 34.9795 12.1549 33.1822 14.577C31.459 16.8987 30.5103 19.9679 30.5103 23.2192C30.5103 26.4703 31.4592 29.5394 33.1822 31.8613C34.9796 34.2834 37.4009 35.6173 40 35.6173C42.5992 35.6173 45.0206 34.2834 46.818 31.8613C48.541 29.5396 49.4899 26.4704 49.4899 23.2194C49.49 19.968 48.541 16.8989 46.818 14.5772ZM40.0002 33.3736C36.0048 33.3736 32.7539 28.8183 32.7539 23.219C32.7539 17.6197 36.0045 13.0644 40.0002 13.0644C43.9958 13.0644 47.2465 17.6197 47.2465 23.219C47.2465 28.8183 43.9958 33.3736 40.0002 33.3736Z" fill="#F8981D"/>
<path d="M32.1549 13.7357C32.7735 13.7357 33.275 13.2342 33.275 12.6156C33.275 11.9969 32.7735 11.4954 32.1549 11.4954C31.5362 11.4954 31.0347 11.9969 31.0347 12.6156C31.0347 13.2342 31.5362 13.7357 32.1549 13.7357Z" fill="#F8981D"/>
<path d="M47.8455 13.7357C48.4641 13.7357 48.9656 13.2342 48.9656 12.6156C48.9656 11.9969 48.4641 11.4954 47.8455 11.4954C47.2268 11.4954 46.7253 11.9969 46.7253 12.6156C46.7253 13.2342 47.2268 13.7357 47.8455 13.7357Z" fill="#F8981D"/>
<path d="M32.1549 35.0923C32.7735 35.0923 33.275 34.5908 33.275 33.9721C33.275 33.3535 32.7735 32.852 32.1549 32.852C31.5362 32.852 31.0347 33.3535 31.0347 33.9721C31.0347 34.5908 31.5362 35.0923 32.1549 35.0923Z" fill="#F8981D"/>
<path d="M47.8455 35.0923C48.4641 35.0923 48.9656 34.5908 48.9656 33.9721C48.9656 33.3535 48.4641 32.852 47.8455 32.852C47.2268 32.852 46.7253 33.3535 46.7253 33.9721C46.7253 34.5908 47.2268 35.0923 47.8455 35.0923Z" fill="#F8981D"/>
<path fill-rule="evenodd" clip-rule="evenodd" d="M52.5092 12.2401H58.6149C60.6694 12.2401 62.3409 13.913 62.3407 15.969V18.7577V19.879V37.6104C62.3407 39.9264 61.3186 42.0633 59.5646 43.5051C59.7169 43.934 59.8004 44.3951 59.8004 44.8756V48.9837H54.6774C54.4587 51.8688 53.4035 54.524 51.7546 56.7076L55.4725 76.5714H24.5277L28.2454 56.7077C26.5966 54.5241 25.5413 51.869 25.3226 48.9838H20.1996V44.8757C20.1996 44.3953 20.2832 43.9343 20.4354 43.5053C18.6814 42.0633 17.6593 39.9264 17.6593 37.6106V19.879V18.7577V15.969C17.6593 13.9128 19.3327 12.24 21.3897 12.24H27.491L26.5103 14.4837H21.3897C20.5699 14.4837 19.9029 15.1498 19.9029 15.969V18.7577H23.3282V21.0014H19.9029V37.6104C19.9029 39.1916 20.5786 40.6534 21.7423 41.6696C22.4462 41.105 23.3387 40.766 24.3092 40.766H55.691C56.6614 40.766 57.5539 41.1049 58.2577 41.6696C59.4213 40.6536 60.0972 39.1916 60.0972 37.6104V21.0014H56.6719V18.7577H60.0972V15.969C60.0972 15.1501 59.4322 14.4837 58.6149 14.4837H53.4897L52.5092 12.2401ZM27.2303 74.3277H52.7699L49.8592 58.7768C47.2476 61.1358 43.7887 62.5743 40 62.5743C36.2112 62.5743 32.7523 61.1358 30.1407 58.7768L27.2303 74.3277ZM27.5769 48.9836C28.1467 55.335 33.4993 60.3307 40.0002 60.3307C46.501 60.3307 51.8536 55.335 52.4233 48.9836H27.5769ZM22.4433 46.7398H57.5569L57.557 44.8754C57.557 43.8464 56.7197 43.0094 55.691 43.0094H24.3093C23.2803 43.0094 22.4433 43.8464 22.4433 44.8754V46.7398Z" fill="#1998A7"/>
<path d="M50.7266 9.3483C51.3949 10.2459 51.9899 11.2144 52.5092 12.2402L53.4898 14.4837C54.4896 17.1679 55.0188 20.1412 55.0188 23.219C55.0188 29.8973 52.5003 36.076 48.2818 39.747L46.8089 38.0546C50.5448 34.8036 52.775 29.2576 52.775 23.2192C52.775 13.5437 47.0442 5.67216 40 5.67216C32.9559 5.67216 27.225 13.5439 27.2249 23.2192C27.2249 29.2576 29.4552 34.8036 33.191 38.0546L31.7182 39.747C27.4998 36.0759 24.9813 29.8972 24.9813 23.219C24.9813 20.1412 25.5105 17.1679 26.5103 14.4837L27.491 12.24C28.0105 11.2144 28.6055 10.2457 29.2736 9.34816C32.1153 5.53087 35.9248 3.42859 40.0002 3.42859C44.0756 3.42859 47.885 5.53087 50.7266 9.3483Z" fill="#F8981D"/>
</svg>
