<svg width="80" height="80" viewBox="0 0 80 80" fill="none" xmlns="http://www.w3.org/2000/svg">
<path d="M19.5605 7.5C16.3657 7.51245 13.3053 8.7871 11.0462 11.0462C8.7871 13.3053 7.51245 16.3657 7.5 19.5605V60.4395C7.51245 63.6343 8.7871 66.6947 11.0462 68.9538C13.3053 71.2129 16.3657 72.4876 19.5605 72.5H60.4395C63.6343 72.4876 66.6947 71.2129 68.9538 68.9538C71.2129 66.6947 72.4876 63.6343 72.5 60.4395V19.5605C72.4876 16.3657 71.2129 13.3053 68.9538 11.0462C66.6947 8.7871 63.6343 7.51245 60.4395 7.5H19.5605ZM19.5605 13.4091H60.4395C61.2487 13.4044 62.0507 13.5603 62.7991 13.8678C63.5476 14.1752 64.2276 14.6282 64.7997 15.2003C65.3719 15.7724 65.8248 16.4524 66.1323 17.2009C66.4397 17.9493 66.5956 18.7513 66.5909 19.5605V60.4395C66.5956 61.2487 66.4397 62.0507 66.1323 62.7991C65.8248 63.5476 65.3719 64.2276 64.7997 64.7997C64.2276 65.3719 63.5476 65.8248 62.7991 66.1323C62.0507 66.4397 61.2487 66.5956 60.4395 66.5909H19.5605C18.7512 66.596 17.949 66.4404 17.2004 66.1331C16.4518 65.8257 15.7716 65.3728 15.1994 64.8006C14.6272 64.2284 14.1743 63.5482 13.8669 62.7996C13.5596 62.051 13.404 61.2488 13.4091 60.4395V19.5605C13.4044 18.7513 13.5603 17.9493 13.8678 17.2009C14.1752 16.4524 14.6282 15.7724 15.2003 15.2003C15.7724 14.6282 16.4524 14.1752 17.2009 13.8678C17.9493 13.5603 18.7513 13.4044 19.5605 13.4091Z" fill="#1998A7"/>
<path d="M34.1146 29.3694C35.1516 28.8612 36.9982 28.8406 39.1698 28.8612H39.1727C40.8568 28.876 41.3414 28.9794 42.0002 29.1419C43.9946 29.6235 43.315 31.4701 43.315 35.9374C43.315 37.3556 43.0609 39.3646 44.0891 40.0353C44.5264 40.3219 45.6225 40.0678 48.323 35.4765C49.6052 33.2931 50.5743 30.7315 50.5743 30.7315C50.6937 30.4716 50.8766 30.246 51.1061 30.0756C51.44 29.8776 51.8891 29.9367 51.8891 29.9367L57.9725 29.9012C57.9725 29.9012 59.7984 29.6826 60.0939 30.501C60.4071 31.3785 59.4143 33.3994 56.9325 36.7115C52.8493 42.1478 52.3973 41.6396 55.7921 44.7774C59.0214 47.7792 59.6921 49.2446 59.7955 49.416C61.1339 51.6437 58.3182 51.8181 58.3182 51.8181L52.9143 51.8978C52.9143 51.8978 51.7502 52.1283 50.2139 51.0794C48.193 49.6937 46.3021 46.0921 44.813 46.556C43.3121 47.0406 43.3593 50.2817 43.3593 50.2817C43.3593 50.2817 43.3711 50.976 43.0225 51.3453C42.6532 51.7383 41.9264 51.8181 41.9264 51.8181H39.5036C39.5036 51.8181 34.1707 52.1431 29.473 47.2474C24.3498 41.9144 19.8264 31.3312 19.8264 31.3312C19.8264 31.3312 19.5605 30.6517 19.85 30.306C20.1602 29.9367 21.0259 29.9012 21.0259 29.9012L26.808 29.8658C26.808 29.8658 27.3516 29.9603 27.7446 30.2469C28.0636 30.4774 28.2409 30.9176 28.2409 30.9176C28.2409 30.9176 29.1745 33.2842 30.4095 35.4292C32.8323 39.5951 33.9521 40.5081 34.7705 40.059C35.9611 39.4001 35.6155 34.1617 35.6155 34.1617C35.6155 34.1617 35.6361 32.256 35.0157 31.414C34.5282 30.7551 33.6182 30.5601 33.2134 30.501C32.8914 30.4656 33.4202 29.7062 34.1146 29.3694Z" fill="#F8981D"/>
</svg>
